<?xml version="1.0" encoding="UTF-8"?>
<svg width="128" height="128" xmlns="http://www.w3.org/2000/svg">
  <!-- Background circle -->
  <circle cx="64" cy="64" r="60" fill="#4285f4"/>

  <!-- Google "G" stylized logo -->
  <path d="M 64 20
           C 40 20, 20 40, 20 64
           C 20 88, 40 108, 64 108
           C 76 108, 86 104, 92 96
           L 92 76
           L 68 76
           L 68 86
           L 82 86
           C 78 94, 72 98, 64 98
           C 46 98, 30 82, 30 64
           C 30 46, 46 30, 64 30
           C 72 30, 78 34, 82 40
           L 90 32
           C 84 24, 74 20, 64 20 Z"
        fill="white"/>

  <!-- Add some color accents similar to Google's logo -->
  <circle cx="42" cy="44" r="4" fill="#ea4335" opacity="0.8"/>
  <circle cx="86" cy="44" r="4" fill="#fbbc05" opacity="0.8"/>
  <circle cx="42" cy="84" r="4" fill="#34a853" opacity="0.8"/>
  <circle cx="86" cy="84" r="4" fill="#4285f4" opacity="0.8"/>
</svg>